<?xml version="1.0" encoding="utf-8"?>
<!-- Generator: Adobe Illustrator 22.0.1, SVG Export Plug-In . SVG Version: 6.00 Build 0)  -->
<svg version="1.1" id="Layer_1" xmlns="http://www.w3.org/2000/svg" xmlns:xlink="http://www.w3.org/1999/xlink" x="0px" y="0px"
	 viewBox="0 0 139 50" style="enable-background:new 0 0 139 50;" xml:space="preserve">
<style type="text/css">
	.st0{fill:#43525A;}
	.st1{font-family:'SchadowBT-Roman';}
	.st2{font-size:20.7364px;}
	.st3{font-family:'SchadowBT-Bold';}
	.st4{font-size:21.124px;}
	.st5{fill-rule:evenodd;clip-rule:evenodd;fill:#7A1315;}
	.st6{fill-rule:evenodd;clip-rule:evenodd;fill:#F1F1F2;}
	.st7{fill-rule:evenodd;clip-rule:evenodd;fill:#E6E7E8;}
	.st8{fill-rule:evenodd;clip-rule:evenodd;fill:#43525A;}
	.st9{fill-rule:evenodd;clip-rule:evenodd;fill:#D0D2D3;}
</style>
<g>
	<text transform="matrix(1 0 0 1 73.8406 22.9777)" class="st0 st1 st2">Ballard</text>
	<text transform="matrix(1 0 0 1 74.03 39.7018)" class="st0 st3 st4">Books</text>
	<path class="st5" d="M53.8,7.3v7c0,0.9-0.6,1.6-1.4,1.6H6c-0.8,0-1.4-0.7-1.4-1.6v-7c0-0.9,0.6-1.6,1.4-1.6h46.5
		C53.2,5.6,53.8,6.4,53.8,7.3L53.8,7.3z M53.7,7.3v7c0,0.8-0.5,1.4-1.2,1.4H6c-0.7,0-1.2-0.6-1.2-1.4v-7c0-0.8,0.5-1.4,1.2-1.4h46.5
		C53.1,5.9,53.7,6.5,53.7,7.3L53.7,7.3z"/>
	<path class="st5" d="M54.7,7.1v7.3c0,0.8-0.6,1.5-1.3,1.5h-7.6V5.7h7.6C54.1,5.7,54.7,6.3,54.7,7.1L54.7,7.1z M43.2,15.8h-28V5.7
		h28V15.8L43.2,15.8z M11.4,15.8H5c-0.7,0-1.3-0.7-1.3-1.5V7.1c0-0.8,0.6-1.5,1.3-1.5h6.4V15.8L11.4,15.8z"/>
	<path class="st5" d="M52.5,33.7v2.6c0,2.2-1.7,3.9-3.9,3.9h-1.3H6.9c-0.7,0-1.3-0.6-1.3-1.3c0-0.7,0.6-1.3,1.3-1.3h1h0.3H48
		c1.2,0,2.1-0.9,2.1-2v-1.3c0-1.1-0.9-2-2.1-2H8.2H7.9h-1c-0.7,0-1.3-0.6-1.3-1.3c0-0.7,0.6-1.3,1.3-1.3h31.2l10.4,0
		C50.7,29.8,52.5,31.5,52.5,33.7L52.5,33.7z"/>
	<path class="st6" d="M50.1,34.3v1.3c0,1.1-0.9,2-2.1,2h-40c0.2-0.8,0.4-1.7,0.4-2.6c0-1-0.1-1.8-0.4-2.6h40
		C49.1,32.4,50.1,33.2,50.1,34.3L50.1,34.3z"/>
	<path class="st7" d="M47.8,35c0,0.1-5.5,0.3-12.3,0.3c-6.8,0-12.3-0.1-12.3-0.3c0-0.1,5.5-0.3,12.3-0.3
		C42.3,34.8,47.8,34.9,47.8,35L47.8,35z"/>
	<path class="st8" d="M47.2,28c0,0.7-0.6,1.3-1.3,1.3H4.3c-2.2,0-3.9-1.8-3.9-3.9v-5.2c0-2.2,1.7-3.9,3.9-3.9h41.6
		c0.7,0,1.3,0.6,1.3,1.3c0,0.7-0.6,1.3-1.3,1.3H7.6l0,0H4.7c-1.1,0-2,1.3-2,2.9v2c0,1.6,0.9,2.9,2,2.9h2.9h0.1h38.2
		C46.6,26.7,47.2,27.3,47.2,28L47.2,28z"/>
	<path class="st7" d="M4.7,18.9h3c-1.1,0-2,1.3-2,2.9v2c0,1.6,0.9,2.9,2,2.9h-3c-1.1,0-2-1.3-2-2.9v-2C2.8,20.2,3.6,18.9,4.7,18.9
		L4.7,18.9z"/>
	<path class="st6" d="M7.6,18.9h38.7c-0.2,1.2-0.4,2.5-0.4,3.9c0,1.4,0.1,2.8,0.4,3.9H7.6c-1.1,0-2-1.3-2-2.9v-2
		C5.6,20.2,6.5,18.9,7.6,18.9L7.6,18.9z"/>
	<path class="st7" d="M25.8,21.9c10.5,0,19.1,0.1,19.1,0.1c0,0.1-8.5,0.1-19.1,0.1c-10.5,0-19.1-0.1-19.1-0.1
		C6.7,22,15.3,21.9,25.8,21.9L25.8,21.9z"/>
	<path class="st8" d="M45,44l-3.9-1.3L37.2,44v-8.5c0-0.4,0.3-0.7,0.7-0.7h6.5c0.4,0,0.7,0.3,0.7,0.7V44L45,44z"/>
	<path class="st7" d="M23.5,20.9c9.3,0,16.8,0.1,16.8,0.1c0,0.1-7.5,0.1-16.8,0.1c-9.3,0-16.8-0.1-16.8-0.1
		C6.7,21,14.2,20.9,23.5,20.9L23.5,20.9z"/>
	<path class="st7" d="M26.1,23.2c9.3,0,16.8,0.1,16.8,0.1c0,0.1-7.5,0.1-16.8,0.1c-9.3,0-16.8-0.1-16.8-0.1
		C9.3,23.2,16.8,23.2,26.1,23.2L26.1,23.2z"/>
	<path class="st7" d="M24.5,24.5c9.3,0,16.8,0.1,16.8,0.1c0,0.1-7.5,0.1-16.8,0.1c-9.3,0-16.8-0.1-16.8-0.1
		C7.7,24.6,15.2,24.5,24.5,24.5L24.5,24.5z"/>
	<path class="st9" d="M64.3,0C64.7,0,65,11.2,65,25s-0.3,25-0.6,25c-0.3,0-0.6-11.2-0.6-25C63.7,11.2,64,0,64.3,0L64.3,0z"/>
</g>
</svg>
